<?xml version="1.0" encoding="UTF-8"?><svg id="Layer_2" xmlns="http://www.w3.org/2000/svg" viewBox="0 0 85.66 87.81"><defs><style>.cls-1{fill:#999;}</style></defs><g id="svg2"><g><rect class="cls-1" x="15.25" y="39.35" width="11.34" height="11.34"/><rect class="cls-1" x="37.16" y="39.35" width="11.34" height="11.34"/><rect class="cls-1" x="59.07" y="39.35" width="11.34" height="11.34"/><rect class="cls-1" x="15.25" y="60.23" width="11.34" height="11.34"/><rect class="cls-1" x="37.16" y="60.23" width="11.34" height="11.34"/><rect class="cls-1" x="59.07" y="60.23" width="11.34" height="11.34"/></g><path class="cls-1" d="M79.99,11.61h-17.27V4.18c0-2.31-1.87-4.18-4.18-4.18s-4.18,1.87-4.18,4.18v7.43H31.3V4.18c0-2.31-1.87-4.18-4.18-4.18s-4.18,1.87-4.18,4.18v7.43H5.67c-3.13,0-5.67,2.54-5.67,5.67v59.19c0,6.26,5.08,11.34,11.34,11.34h62.98c6.26,0,11.34-5.08,11.34-11.34V17.28c0-3.13-2.54-5.67-5.67-5.67Zm0,64.86c0,3.13-2.54,5.67-5.67,5.67H11.34c-3.13,0-5.67-2.54-5.67-5.67V28.42H79.99v48.05Z"/></g></svg>