<?xml version="1.0" encoding="UTF-8"?><svg id="Layer_2" xmlns="http://www.w3.org/2000/svg" viewBox="0 0 61.42 61.42"><defs><style>.cls-1{fill:#ba160b;}</style></defs><g id="svg2"><path class="cls-1" d="m36.36,30.71L60.24,6.83c1.56-1.56,1.56-4.1,0-5.66-1.56-1.56-4.09-1.56-5.66,0l-23.88,23.88L6.83,1.17C5.27-.39,2.73-.39,1.17,1.17-.39,2.73-.39,5.27,1.17,6.83l23.88,23.88L1.17,54.59c-1.56,1.56-1.56,4.1,0,5.66,1.56,1.56,4.1,1.56,5.66,0l23.88-23.88,23.88,23.88c1.56,1.56,4.1,1.56,5.66,0,1.56-1.56,1.56-4.1,0-5.66l-23.88-23.88Z"/></g></svg>