<?xml version="1.0" encoding="UTF-8"?><svg id="Layer_2" xmlns="http://www.w3.org/2000/svg" viewBox="0 0 102.92 130.39"><defs><style>.cls-1{fill:#001b54;}</style></defs><g id="svg2"><g><path class="cls-1" d="m88.74,21.65h-14.07v-13.14h7.09c2.35,0,4.25-1.9,4.25-4.25h0c0-2.35-1.9-4.25-4.25-4.25h-25.51c-2.35,0-4.25,1.9-4.25,4.25h0c0,2.35,1.9,4.25,4.25,4.25h7.09v13.14H14.17c-7.83,0-14.17,6.35-14.17,14.17v58.75c0,7.83,6.35,14.17,14.17,14.17h49.16v13.14h-7.09c-2.35,0-4.25,1.9-4.25,4.25s1.9,4.25,4.25,4.25h25.51c2.35,0,4.25-1.9,4.25-4.25s-1.9-4.25-4.25-4.25h-7.09v-13.14h14.07c7.83,0,14.17-6.35,14.17-14.17v-58.75c0-7.83-6.35-14.17-14.17-14.17ZM14.17,97.41c-1.56,0-2.83-1.27-2.83-2.83v-58.75c0-1.56,1.27-2.83,2.83-2.83h49.16v64.42H14.17Zm77.41-2.83c0,1.56-1.27,2.83-2.83,2.83h-14.07V32.99h14.07c1.56,0,2.83,1.27,2.83,2.83v58.75Z"/><path class="cls-1" d="m36.39,49.09h-13.45c-1.39,0-2.02,1.12-2.02,2.48s.63,2.43,2.02,2.43h10.53c.77,0,1.04.27,1.04,1.04v2.52c0,5.35-.77,6.71-13,14.17-1.3.81-1.17,2.52-.45,3.6.72,1.08,2.25,1.75,3.51.99,13.59-8.37,15.66-10.98,15.66-18.58v-4.9c0-2.83-.94-3.74-3.82-3.74Z"/><path class="cls-1" d="m56.42,59.26h-4.23v-10.84c0-1.67-1.4-2.43-2.88-2.43s-2.88.76-2.88,2.43v34.47c0,1.67,1.4,2.43,2.88,2.43s2.88-.76,2.88-2.43v-18.63h4.23c1.44,0,2.07-1.12,2.07-2.52s-.63-2.47-2.07-2.47Z"/></g></g></svg>