<?xml version="1.0" encoding="UTF-8"?><svg id="Layer_2" xmlns="http://www.w3.org/2000/svg" viewBox="0 0 170.08 170.08"><defs><style>.cls-1{fill:#fff;}.cls-2{fill:#c21707;}</style></defs><g id="svg2"><g><rect class="cls-1" x="29.21" y="34.24" width="107.96" height="96.58"/><path class="cls-2" d="M85.04,0C38.07,0,0,38.07,0,85.04s38.07,85.04,85.04,85.04,85.04-38.07,85.04-85.04S132.01,0,85.04,0Zm30.58,105.08c3.32,3.32,3.32,8.71,0,12.03-3.32,3.32-8.71,3.32-12.03,0l-20.04-20.04-20.04,20.04c-3.32,3.32-8.71,3.32-12.03,0-3.32-3.32-3.32-8.71,0-12.03l20.04-20.04-20.04-20.04c-3.32-3.32-3.32-8.71,0-12.03,3.32-3.32,8.71-3.32,12.03,0l20.04,20.04,20.04-20.04c3.32-3.32,8.71-3.32,12.03,0,3.32,3.32,3.32,8.71,0,12.03l-20.04,20.04,20.04,20.04Z"/></g></g></svg>