<?xml version="1.0" encoding="UTF-8"?><svg id="Layer_2" xmlns="http://www.w3.org/2000/svg" viewBox="0 0 172.33 172.33"><defs><style>.cls-1{fill:#15358b;}</style></defs><g id="svg2"><path class="cls-1" d="m86.17,0C38.58,0,0,38.58,0,86.17s38.58,86.17,86.17,86.17,86.17-38.58,86.17-86.17S133.76,0,86.17,0Zm-33.29,56.32c1.64-1.64,4.31-1.64,5.96,0l12.01,12.01c1.64,1.64,1.64,4.31,0,5.96-1.64,1.64-4.31,1.64-5.96,0l-12.01-12.01c-1.64-1.64-1.64-4.31,0-5.96Zm-13.77,33.28c0-2.33,1.89-4.21,4.21-4.21h16.98c2.33,0,4.21,1.89,4.21,4.21s-1.89,4.21-4.21,4.21h-16.98c-2.33,0-4.21-1.89-4.21-4.21Zm31.76,21.26l-12.01,12.01c-1.64,1.64-4.31,1.64-5.96,0-1.64-1.64-1.64-4.31,0-5.96l12.01-12.01c1.64-1.64,4.31-1.64,5.96,0,1.64,1.64,1.64,4.31,0,5.96Zm11.07-64.13c0-2.33,1.89-4.21,4.21-4.21s4.21,1.89,4.21,4.21v16.98c0,2.33-1.89,4.21-4.21,4.21s-4.21-1.89-4.21-4.21v-16.98Zm8.46,78.87c0,2.33-1.89,4.21-4.21,4.21s-4.21-1.89-4.21-4.21v-10.15c0-2.33,1.89-4.21,4.21-4.21s4.21,1.89,4.21,4.21v10.15Zm11.07-51.35c-1.64-1.64-1.64-4.31,0-5.96l12.01-12.01c1.64-1.64,4.31-1.64,5.96,0,1.64,1.64,1.64,4.31,0,5.96l-12.01,12.01c-1.64,1.64-4.31,1.64-5.96,0Zm27.55,19.52h-16.98c-2.33,0-4.21-1.89-4.21-4.21s1.89-4.21,4.21-4.21h16.98c2.33,0,4.21,1.89,4.21,4.21s-1.89,4.21-4.21,4.21Z"/></g></svg>