<?xml version="1.0" encoding="UTF-8"?><svg id="Layer_2" xmlns="http://www.w3.org/2000/svg" viewBox="0 0 203.2 203.89"><defs><style>.cls-1{fill:#8e8e8e;}</style></defs><g id="svg2"><path class="cls-1" d="M199.97,185.11l-54.21-54.21c10.94-14.19,16.91-31.58,16.91-49.57C162.68,36.49,126.19,0,81.34,0S0,36.49,0,81.34s36.49,81.34,81.34,81.34c17.62,0,34.73-5.76,48.78-16.31l54.3,54.3c2.08,2.08,4.84,3.22,7.78,3.22s5.7-1.15,7.78-3.22c2.08-2.08,3.22-4.84,3.22-7.78s-1.14-5.7-3.22-7.78Zm-118.64-44.44c-32.72,0-59.34-26.62-59.34-59.34S48.62,22,81.34,22s59.34,26.62,59.34,59.34-26.62,59.34-59.34,59.34Z"/></g></svg>