<?xml version="1.0" encoding="UTF-8"?><svg id="Layer_2" xmlns="http://www.w3.org/2000/svg" viewBox="0 0 170.08 170.08"><defs><style>.cls-1{fill:#c21707;}</style></defs><g id="svg2"><g><path class="cls-1" d="m68.97,114.66c12.73,7.5,29.43,5.8,40.35-5.13s12.63-27.62,5.13-40.35l-45.48,45.48Z"/><path class="cls-1" d="m62.35,62.56c-10.92,10.92-12.63,27.62-5.13,40.35l45.48-45.48c-12.73-7.5-29.43-5.79-40.35,5.13Z"/><path class="cls-1" d="m85.04,0C38.07,0,0,38.07,0,85.04s38.07,85.04,85.04,85.04,85.04-38.07,85.04-85.04S132.01,0,85.04,0Zm36.02,121.27c-17.45,17.45-44.63,19.24-64.09,5.37-2.23-1.59-4.37-3.37-6.37-5.37-2-2-3.79-4.14-5.38-6.37-13.86-19.46-12.08-46.63,5.38-64.08s44.63-19.24,64.08-5.38c2.23,1.59,4.37,3.37,6.37,5.38,2,2,3.78,4.14,5.37,6.37,13.86,19.46,12.08,46.63-5.37,64.09Z"/></g></g></svg>