<?xml version="1.0" encoding="UTF-8"?><svg id="Layer_2" xmlns="http://www.w3.org/2000/svg" viewBox="0 0 170.08 170.08"><defs><style>.cls-1{fill:#307e1e;}</style></defs><g id="svg2"><path class="cls-1" d="M85.04,0C38.07,0,0,38.07,0,85.04s38.07,85.04,85.04,85.04,85.04-38.07,85.04-85.04S132.01,0,85.04,0Zm36.26,71.1l-40.6,40.6c-3.52,3.51-9.21,3.51-12.73,0l-19.18-19.18c-3.52-3.51-3.52-9.21,0-12.73h0c3.51-3.51,9.21-3.51,12.73,0l12.82,12.82,34.24-34.24c3.51-3.51,9.21-3.51,12.73,0h0c3.52,3.51,3.52,9.21,0,12.73Z"/></g></svg>