<?xml version="1.0" encoding="UTF-8"?><svg id="Layer_2" xmlns="http://www.w3.org/2000/svg" viewBox="0 0 20 20"><defs><style>.cls-1{fill:#001b54;}</style></defs><g id="svg2"><path class="cls-1" d="M17,20H3c-1.65,0-3-1.35-3-3v-4c0-.55,.45-1,1-1s1,.45,1,1v4c0,.55,.45,1,1,1h14c.55,0,1-.45,1-1v-4c0-.55,.45-1,1-1s1,.45,1,1v4c0,1.65-1.35,3-3,3Z"/><path class="cls-1" d="M15.71,5.29L10.71,.29c-.09-.09-.2-.17-.33-.22-.24-.1-.52-.1-.76,0-.12,.05-.23,.12-.33,.22L4.29,5.29c-.39,.39-.39,1.02,0,1.41s1.02,.39,1.41,0l3.29-3.29V13c0,.55,.45,1,1,1s1-.45,1-1V3.41l3.29,3.29c.2,.2,.45,.29,.71,.29s.51-.1,.71-.29c.39-.39,.39-1.02,0-1.41Z"/></g></svg>