<?xml version="1.0" encoding="UTF-8"?><svg id="Layer_2" xmlns="http://www.w3.org/2000/svg" viewBox="0 0 170.08 170.08"><defs><style>.cls-1{fill:#307e1e;}</style></defs><g id="svg2"><g><path class="cls-1" d="M85.04,0C38.07,0,0,38.07,0,85.04s38.07,85.04,85.04,85.04,85.04-38.07,85.04-85.04S132.01,0,85.04,0Zm0,150.24c-36.01,0-65.2-29.19-65.2-65.2S49.03,19.84,85.04,19.84s65.2,29.19,65.2,65.2-29.19,65.2-65.2,65.2Z"/><path class="cls-1" d="M121.3,58.37c-3.51-3.51-9.21-3.51-12.73,0l-34.24,34.24-12.82-12.82c-3.51-3.51-9.21-3.51-12.73,0h0c-3.51,3.51-3.51,9.21,0,12.73l19.18,19.18c3.51,3.51,9.21,3.51,12.73,0l40.6-40.6c3.51-3.51,3.51-9.21,0-12.73h0Z"/></g></g></svg>