<?xml version="1.0" encoding="UTF-8"?><svg id="Layer_2" xmlns="http://www.w3.org/2000/svg" viewBox="0 0 1094.17 838.83"><defs><style>.cls-1{fill:#ffd969;}.cls-2{fill:#ffb902;}</style></defs><g id="svg2"><g><path class="cls-1" d="M957.96,129.98h-394.65L.04,132.94c0,1.37,.01,2.74,.01,4.12v107.7c0,.8,0,15.43,0,15.43,0,.05,0,.1,0,.15v448.12c0,72,60.99,130.36,136.21,130.36H957.96c75.23,0,136.21-58.36,136.21-130.36V260.34c0-72-60.99-130.36-136.21-130.36Z"/><path class="cls-2" d="M469.47,50.64c-5.58-7.26-11.98-13.94-19.07-19.88C412.44-1.03,365.31,.63,317.9,.3,293.58,.14,269.25,.03,244.93,0c-24.88-.02-49.75,.04-74.63,.32-33.81,.39-69.92-2.05-101.19,13.2C41.95,26.78,19.27,49.5,7.55,76.51-.54,95.14-.06,113.65,.04,133.17l518.65-2.97c-5.34-11.39-21.48-43.51-49.22-79.57Z"/></g></g></svg>