<?xml version="1.0" encoding="UTF-8"?><svg id="Layer_2" xmlns="http://www.w3.org/2000/svg" viewBox="0 0 164.41 175.75"><defs><style>.cls-1{fill:#001b54;}</style></defs><g id="svg2"><path class="cls-1" d="M68.51,141.02c3.63,0,6.58-2.8,6.58-6.26v-56.31c0-3.46-2.94-6.26-6.58-6.26s-6.58,2.8-6.58,6.26v56.31c0,3.46,2.94,6.26,6.58,6.26Z"/><path class="cls-1" d="M95.9,141.02c3.63,0,6.58-2.8,6.58-6.26v-56.31c0-3.46-2.94-6.26-6.58-6.26s-6.58,2.8-6.58,6.26v56.31c0,3.46,2.94,6.26,6.58,6.26Z"/><path class="cls-1" d="M158.43,34.57h-33.9v-8.95c0-14.12-12.07-25.61-26.9-25.61h-30.85c-14.83,0-26.9,11.49-26.9,25.61v8.95H5.98c-3.3,0-5.98,2.55-5.98,5.69v6.02c0,3.14,2.68,5.69,5.98,5.69h11.82l8.4,100.2c1.11,13.22,12.89,23.58,26.82,23.58h58.37c13.93,0,25.71-10.36,26.82-23.58l8.4-100.2h11.82c3.3,0,5.98-2.55,5.98-5.69v-6.02c0-3.14-2.68-5.69-5.98-5.69ZM57.81,25.61c0-4.72,4.01-8.54,8.97-8.54h30.85c4.95,0,8.97,3.82,8.97,8.54v8.95H57.81v-8.95Zm62.52,125.2c-.37,4.44-4.26,7.86-8.94,7.86H53.02c-4.68,0-8.57-3.42-8.94-7.86l-8.29-98.84h92.82l-8.29,98.84Z"/></g></svg>