<?xml version="1.0" encoding="UTF-8"?><svg id="Layer_2" xmlns="http://www.w3.org/2000/svg" viewBox="0 0 102.92 126.62"><defs><style>.cls-1{fill:#fff;}</style></defs><g id="svg2"><g><path class="cls-1" d="m88.74,19.76h-14.32v-8.42h5.67c3.13,0,5.67-2.54,5.67-5.67s-2.54-5.67-5.67-5.67h-22.68c-3.13,0-5.67,2.54-5.67,5.67s2.54,5.67,5.67,5.67h5.67v8.42H14.17c-7.83,0-14.17,6.35-14.17,14.17v58.75c0,7.83,6.35,14.17,14.17,14.17h48.91v8.42h-5.67c-3.13,0-5.67,2.54-5.67,5.67s2.54,5.67,5.67,5.67h22.68c3.13,0,5.67-2.54,5.67-5.67s-2.54-5.67-5.67-5.67h-5.67v-8.42h14.32c7.83,0,14.17-6.35,14.17-14.17v-58.75c0-7.83-6.35-14.17-14.17-14.17ZM17.01,92.68c-1.57,0-2.84-1.27-2.84-2.84v-53.08c0-1.57,1.27-2.84,2.84-2.84h46.08v58.75H17.01Zm71.73-2.84c0,1.57-1.27,2.84-2.84,2.84h-11.48v-58.75h11.48c1.57,0,2.84,1.27,2.84,2.84v53.08Z"/><path class="cls-1" d="m56.18,58.03h-4.16v-10.66c0-1.64-1.37-2.39-2.83-2.39s-2.83.75-2.83,2.39v33.88c0,1.64,1.37,2.39,2.83,2.39s2.83-.75,2.83-2.39v-18.31h4.16c1.42,0,2.03-1.11,2.03-2.48s-.62-2.43-2.03-2.43Z"/><path class="cls-1" d="m36.5,48.03h-13.23c-1.37,0-1.99,1.11-1.99,2.43s.62,2.39,1.99,2.39h10.35c.75,0,1.02.27,1.02,1.02v2.48c0,5.26-.75,6.59-12.78,13.93-1.28.8-1.15,2.48-.44,3.54.71,1.06,2.21,1.73,3.45.97,13.36-8.23,15.39-10.79,15.39-18.27v-4.82c0-2.79-.93-3.67-3.76-3.67Z"/></g></g></svg>