<svg id="그룹_55" data-name="그룹 55" xmlns="http://www.w3.org/2000/svg" xmlns:xlink="http://www.w3.org/1999/xlink" width="561.387" height="421.235" viewBox="0 0 561.387 421.235">
  <defs>
    <clipPath id="clip-path">
      <rect id="사각형_124" data-name="사각형 124" width="561.387" height="421.235" fill="none"/>
    </clipPath>
    <clipPath id="clip-path-3">
      <rect id="사각형_113" data-name="사각형 113" width="8.833" height="33.956" fill="none"/>
    </clipPath>
  </defs>
  <g id="그룹_54" data-name="그룹 54" clip-path="url(#clip-path)">
    <g id="그룹_53" data-name="그룹 53">
      <g id="그룹_52" data-name="그룹 52" clip-path="url(#clip-path)">
        <path id="패스_411" data-name="패스 411" d="M395.766,22.676c31.163,16.362,57.11,41.244,76.866,70.775,59.27,88.591,62.822,219.017-15.682,286.719-26.719,23.042-114.753-2.736-147.94-17.377-61.591-27.173-211.3,84.172-279.109-1.527C-16.438,302.7-1.027,238.506,23.306,216.542,60.794,182.7,21.526,129.653,54.64,74.567,83.228,27.011,125.084,32.7,176.5,29.139c71.449-4.946,119.706-58.735,219.264-6.463" transform="translate(0 0)" fill="#bacceb"/>
        <rect id="사각형_111" data-name="사각형 111" width="8.136" height="11.761" transform="translate(129.996 245.286)" fill="#ffb8b8"/>
        <path id="패스_412" data-name="패스 412" d="M663.589,314.265H310.251a9.107,9.107,0,0,1-9.1-9.1V87.308a6.66,6.66,0,0,1,6.672-6.672H665.96a6.777,6.777,0,0,1,6.782,6.782V305.167a9.154,9.154,0,0,1-9.153,9.1" transform="translate(-135.097 -36.173)" fill="#ccc"/>
        <path id="패스_413" data-name="패스 413" d="M660.017,315.055H330.72a8.509,8.509,0,0,1-8.767-8.216V117.1a6.3,6.3,0,0,1,6.507-6.065H662.223a6.412,6.412,0,0,1,6.617,6.176V306.839a8.594,8.594,0,0,1-8.822,8.216" transform="translate(-144.428 -49.811)" fill="#fff"/>
        <path id="패스_414" data-name="패스 414" d="M653.846,309.482H398.6a9.625,9.625,0,0,1-9.649-9.65V176.759a7.248,7.248,0,0,1,7.223-7.223H656.162a7.366,7.366,0,0,1,7.334,7.334V299.832a9.7,9.7,0,0,1-9.65,9.65M396.176,170.639a6.142,6.142,0,0,0-6.121,6.121V299.832a8.519,8.519,0,0,0,8.547,8.547H653.791a8.519,8.519,0,0,0,8.547-8.547V176.87a6.26,6.26,0,0,0-6.231-6.231Z" transform="translate(-174.484 -76.054)" fill="#ccc"/>
        <path id="패스_415" data-name="패스 415" d="M415.275,307.772H652.819a8.848,8.848,0,0,0,8.823-8.822V196.058a8.848,8.848,0,0,0-8.823-8.822H415.275a8.848,8.848,0,0,0-8.822,8.822V298.95a8.848,8.848,0,0,0,8.822,8.822" transform="translate(-182.334 -83.994)" fill="#f2f2f2"/>
        <path id="패스_416" data-name="패스 416" d="M467.416,223.536a4.963,4.963,0,1,1-4.963,4.963,4.962,4.962,0,0,1,4.963-4.963" transform="translate(-207.456 -100.278)" fill="#ccc"/>
        <path id="패스_417" data-name="패스 417" d="M467.416,257.536a4.963,4.963,0,1,1-4.963,4.963,4.962,4.962,0,0,1,4.963-4.963" transform="translate(-207.456 -115.53)" fill="#ccc"/>
        <path id="패스_418" data-name="패스 418" d="M467.416,291.536a4.963,4.963,0,1,1-4.963,4.963,4.962,4.962,0,0,1,4.963-4.963" transform="translate(-207.456 -130.783)" fill="#ccc"/>
        <path id="패스_419" data-name="패스 419" d="M467.416,325.536a4.963,4.963,0,1,1-4.963,4.963,4.962,4.962,0,0,1,4.963-4.963" transform="translate(-207.456 -146.035)" fill="#ccc"/>
        <path id="패스_420" data-name="패스 420" d="M679.219,232.639H516a.551.551,0,0,1,0-1.1H679.219a.521.521,0,0,1,.551.551.553.553,0,0,1-.551.551" transform="translate(-231.231 -103.867)" fill="#ccc"/>
        <path id="패스_421" data-name="패스 421" d="M679.219,266.639H516a.551.551,0,0,1,0-1.1H679.219a.521.521,0,0,1,.551.551.553.553,0,0,1-.551.551" transform="translate(-231.231 -119.119)" fill="#ccc"/>
        <path id="패스_422" data-name="패스 422" d="M679.219,300.639H516a.551.551,0,0,1,0-1.1H679.219a.521.521,0,0,1,.551.551.553.553,0,0,1-.551.551" transform="translate(-231.231 -134.371)" fill="#ccc"/>
        <path id="패스_423" data-name="패스 423" d="M679.219,334.639H516a.551.551,0,0,1,0-1.1H679.219a.521.521,0,0,1,.551.551.553.553,0,0,1-.551.551" transform="translate(-231.231 -149.624)" fill="#ccc"/>
        <path id="패스_424" data-name="패스 424" d="M557.2,352.938H541.21a2.73,2.73,0,0,1-2.757-2.757V335.293a2.73,2.73,0,0,1,2.757-2.757H557.2a2.73,2.73,0,0,1,2.757,2.757v14.888a2.765,2.765,0,0,1-2.757,2.757" transform="translate(-241.549 -149.175)" fill="#6c63ff"/>
        <path id="패스_425" data-name="패스 425" d="M622.2,337.686H606.21a2.73,2.73,0,0,1-2.757-2.757V301.293a2.73,2.73,0,0,1,2.757-2.757H622.2a2.73,2.73,0,0,1,2.757,2.757v33.635a2.765,2.765,0,0,1-2.757,2.757" transform="translate(-270.708 -133.923)" fill="#6c63ff"/>
        <path id="패스_426" data-name="패스 426" d="M688.2,322.433H672.21a2.73,2.73,0,0,1-2.757-2.757V267.293a2.73,2.73,0,0,1,2.757-2.757H688.2a2.73,2.73,0,0,1,2.757,2.757v52.383a2.765,2.765,0,0,1-2.757,2.757" transform="translate(-300.316 -118.67)" fill="#6c63ff"/>
        <path id="패스_427" data-name="패스 427" d="M756.2,307.629H740.21a2.73,2.73,0,0,1-2.757-2.757V234.293a2.73,2.73,0,0,1,2.757-2.757H756.2a2.73,2.73,0,0,1,2.757,2.757v70.579a2.765,2.765,0,0,1-2.757,2.757" transform="translate(-330.82 -103.867)" fill="#6c63ff"/>
        <path id="패스_428" data-name="패스 428" d="M679.219,368.639H516a.551.551,0,0,1,0-1.1H679.219a.521.521,0,0,1,.551.551.553.553,0,0,1-.551.551" transform="translate(-231.231 -164.876)" fill="#3f3d56"/>
        <path id="패스_429" data-name="패스 429" d="M866.451,530.927a5.522,5.522,0,0,1,7.664-1.544,4.171,4.171,0,0,1,.772.607l23.3-13.474,5.866,7.352-29.217,14.283a5.58,5.58,0,0,1-7.885-.331,5.637,5.637,0,0,1-.5-6.892" transform="translate(-388.264 -231.708)" fill="#ffb8b8"/>
        <path id="패스_430" data-name="패스 430" d="M912.324,495.688c4.073-3.922,23.938-26.111,23.938-26.111,3.447-2.736,8.67-1.553,11.406,1.894a7.988,7.988,0,0,1-1.255,11.215l-12.889,15.873c-3.9,4.838-5.511,4.327-15.551,9.1-3.108,1.476-8.127-9.581-5.648-11.966" transform="translate(-408.969 -209.973)" fill="#274597"/>
        <path id="패스_431" data-name="패스 431" d="M963.518,405.736A13.564,13.564,0,1,1,949.953,419.3a13.564,13.564,0,0,1,13.564-13.564" transform="translate(-426.148 -182.013)" fill="#ffb8b8"/>
        <path id="패스_432" data-name="패스 432" d="M956.433,731.317h-6.727l-3.253-26.081h9.98Z" transform="translate(-424.577 -316.368)" fill="#ffb8b8"/>
        <path id="패스_433" data-name="패스 433" d="M936.869,749.036h13.013v8.216H928.653a8.237,8.237,0,0,1,8.216-8.216" transform="translate(-416.592 -336.017)" fill="#2f2e41"/>
        <path id="패스_434" data-name="패스 434" d="M996.433,731.317h-6.727l-3.253-26.081,9.98.055Z" transform="translate(-442.521 -316.368)" fill="#ffb8b8"/>
        <path id="패스_435" data-name="패스 435" d="M976.869,749.036h13.013v8.216H968.653a8.236,8.236,0,0,1,8.216-8.216" transform="translate(-434.536 -336.017)" fill="#2f2e41"/>
        <path id="패스_436" data-name="패스 436" d="M971.4,666.024h-7.94a2.481,2.481,0,0,1-2.371-1.82l-11.414-42.293a.3.3,0,0,0-.331-.221.366.366,0,0,0-.221.276l2.316,40.087a2.553,2.553,0,0,1-2.316,2.647H948.8l-8.878-.717a2.521,2.521,0,0,1-2.261-2.206l-8.105-84.2,3.143,1.875,29.39-5.018,11.855,88.776a2.527,2.527,0,0,1-2.15,2.812H971.4" transform="translate(-416.996 -257.691)" fill="#2f2e41"/>
        <rect id="사각형_112" data-name="사각형 112" width="10.091" height="8.767" transform="translate(532.462 248.426)" fill="#ffb8b8"/>
        <path id="패스_437" data-name="패스 437" d="M938.792,536.675a18.14,18.14,0,0,1-9.208-2.591,2.453,2.453,0,0,1-1.158-2.536c1.048-6.341,6.451-38.819,11.359-56.519,1.985-7.223,6.451-11.083,13.178-11.524,9.87-.662,18.582,7.058,19.52,17.2,1.6,17.865-4.907,43.34-7.83,53.431a2.5,2.5,0,0,1-3.088,1.709,1.989,1.989,0,0,1-.827-.441l-5.9-4.576a1.918,1.918,0,0,0-2.481.11c-4.908,4.356-9.65,5.734-13.565,5.734" transform="translate(-416.475 -207.909)" fill="#274597"/>
        <g id="그룹_51" data-name="그룹 51" transform="translate(538.608 270.235)" opacity="0.2" style="isolation: isolate">
          <g id="그룹_50" data-name="그룹 50">
            <g id="그룹_49" data-name="그룹 49" clip-path="url(#clip-path-3)">
              <path id="패스_438" data-name="패스 438" d="M976.8,490.088l8.833,19.638L981.9,524.044l1.664-13.36Z" transform="translate(-976.798 -490.088)"/>
            </g>
          </g>
        </g>
        <path id="패스_439" data-name="패스 439" d="M971.6,426.707a9.551,9.551,0,0,0,3.529-.662c.5-.165.992-.331,1.489-.551,4.356-1.654,7.223-6.286,7.334-10.973a15.859,15.859,0,0,0-5.9-12.186,22.239,22.239,0,0,0-12.848-4.852c-5.018-.386-10.642.882-13.454,5.073a4.509,4.509,0,0,0-.827,3.8,2.612,2.612,0,0,0,.662,1.048c1.268,1.1,2.481.276,3.75.221a4.1,4.1,0,0,1,3.86,2.978,8.771,8.771,0,0,1-.165,5.183,15.178,15.178,0,0,0-.662,3.143,3.3,3.3,0,0,0,1.323,2.812,3.637,3.637,0,0,0,3.639-.386,22.286,22.286,0,0,1,3.2-2.04c1.158-.441,2.757-.386,3.474.717a3.484,3.484,0,0,1,.441,1.268c.662,2.757.551,2.592,1.158,5.4" transform="translate(-426.513 -178.281)" fill="#2f2e41"/>
        <path id="패스_440" data-name="패스 440" d="M878.281,634.338l-84.805-29.555a5.8,5.8,0,0,1-3.584-7.389l22.056-63.3a4.272,4.272,0,0,1,5.4-2.647l87.673,30.548a4.28,4.28,0,0,1,2.647,5.514l-22,63.191a5.79,5.79,0,0,1-7.389,3.639" transform="translate(-354.2 -238.302)" fill="#e6e6e6"/>
        <path id="패스_441" data-name="패스 441" d="M806.682,607.631l74.164,25.806a5.619,5.619,0,0,0,7.168-3.474l17.81-51.115a5.619,5.619,0,0,0-3.474-7.168l-74.163-25.806a5.619,5.619,0,0,0-7.168,3.474l-17.81,51.115a5.686,5.686,0,0,0,3.474,7.168" transform="translate(-360.183 -244.734)" fill="#fff"/>
        <path id="패스_442" data-name="패스 442" d="M840.117,587.761l-3.694-1.268a.8.8,0,0,1-.5-.993l1.268-3.694a.8.8,0,0,1,.992-.5l3.694,1.268a.8.8,0,0,1,.5.992l-1.268,3.694a.8.8,0,0,1-.992.5" transform="translate(-374.98 -260.76)" fill="#6c63ff"/>
        <path id="패스_443" data-name="패스 443" d="M834.117,604.961l-3.695-1.268a.8.8,0,0,1-.5-.992l1.268-3.694a.8.8,0,0,1,.992-.5l3.694,1.268a.8.8,0,0,1,.5.992l-1.268,3.695a.724.724,0,0,1-.993.5" transform="translate(-372.289 -268.475)" fill="#3f3d56"/>
        <path id="패스_444" data-name="패스 444" d="M898.117,622.261l-3.694-1.268a.8.8,0,0,1-.5-.993l1.268-3.694a.8.8,0,0,1,.992-.5l3.695,1.268a.8.8,0,0,1,.5.992l-1.268,3.695a.8.8,0,0,1-.993.5" transform="translate(-400.999 -276.236)" fill="#ccc"/>
        <path id="패스_445" data-name="패스 445" d="M873.522,598.574l-17.7-6.176a.785.785,0,0,1,.5-1.489l17.7,6.176a.8.8,0,0,1,.5.992.759.759,0,0,1-.993.5" transform="translate(-383.683 -265.066)" fill="#ccc"/>
        <path id="패스_446" data-name="패스 446" d="M867.522,615.877l-17.7-6.176a.8.8,0,0,1-.5-.992.83.83,0,0,1,.993-.5l17.7,6.176a.8.8,0,0,1,.5.993.83.83,0,0,1-.993.5" transform="translate(-380.992 -272.831)" fill="#ccc"/>
        <path id="패스_447" data-name="패스 447" d="M861.522,633.077l-17.7-6.176a.8.8,0,0,1-.5-.993.83.83,0,0,1,.993-.5l17.7,6.176a.8.8,0,0,1,.5.993.781.781,0,0,1-.992.5" transform="translate(-378.3 -280.547)" fill="#ccc"/>
        <path id="패스_448" data-name="패스 448" d="M948.968,630.7c.11-.331.276-.607.386-.937A16.649,16.649,0,0,0,939.1,608.536l-5.845,16.707Z" transform="translate(-418.656 -272.988)" fill="#6c63ff"/>
        <path id="패스_449" data-name="패스 449" d="M916.831,626.282l5.79-16.707a16.671,16.671,0,1,0,9.87,22.166Z" transform="translate(-403.943 -273.034)" fill="#3f3d56"/>
        <path id="패스_450" data-name="패스 450" d="M963.688,574.608a5.512,5.512,0,0,1,5.073-5.955h.993l8.216-17.976,8.3.551-11.5,23.765a5.588,5.588,0,0,1-11.083-.386" transform="translate(-432.299 -247.033)" fill="#ffb8b8"/>
        <path id="패스_451" data-name="패스 451" d="M991.32,519.513s-10.24-4.462-10.114-5.265l3.6-13.076-9.842-21.833c-.612-3.162,5.758-7.65,10.081-8.527,1.329-.27,2.614,1.175,3.382,2.047a34.417,34.417,0,0,1,3.782,5.517q1.734,2.977,3.25,6.074a48.917,48.917,0,0,1,2.208,4.757,20.651,20.651,0,0,1,.913,5.373,42.72,42.72,0,0,1,.1,5.8,42.091,42.091,0,0,1-1.718,10.05,26.312,26.312,0,0,1-2.865,6.586c-.558.871-1.566,2.5-2.779,2.5" transform="translate(-437.35 -211.191)" fill="#274597"/>
        <path id="패스_452" data-name="패스 452" d="M636.253,730.862h6.782l3.2-26.026h-9.98Z" transform="translate(-285.422 -316.188)" fill="#ffb8b8"/>
        <path id="패스_453" data-name="패스 453" d="M633.153,748.036h13.289a8.5,8.5,0,0,1,8.492,8.492v.276h-21.78Z" transform="translate(-284.032 -335.568)" fill="#2f2e41"/>
        <path id="패스_454" data-name="패스 454" d="M587.253,730.862h6.782l3.2-26.026h-9.98Z" transform="translate(-263.441 -316.188)" fill="#ffb8b8"/>
        <path id="패스_455" data-name="패스 455" d="M584.153,748.036h13.289a8.5,8.5,0,0,1,8.492,8.492v.276h-21.78Z" transform="translate(-262.05 -335.568)" fill="#2f2e41"/>
        <path id="패스_456" data-name="패스 456" d="M614.332,386.911a13.565,13.565,0,1,1,11.217,15.563,13.565,13.565,0,0,1-11.217-15.563" transform="translate(-275.509 -168.457)" fill="#ffb8b8"/>
        <path id="패스_457" data-name="패스 457" d="M621.967,649.066H609.4a2.471,2.471,0,0,1-2.481-2.481v-.055l.717-59.552a.848.848,0,0,0-.827-.827.835.835,0,0,0-.827.717L598.7,646.86a2.5,2.5,0,0,1-2.481,2.206H583.534a2.471,2.471,0,0,1-2.481-2.481v-.22l8.381-107.027h.221l40.032-4.3-5.238,111.659a2.486,2.486,0,0,1-2.481,2.371" transform="translate(-260.66 -240.016)" fill="#2f2e41"/>
        <rect id="사각형_114" data-name="사각형 114" width="10.091" height="8.767" transform="translate(347.247 232.325)" fill="#ffb8b8"/>
        <path id="패스_458" data-name="패스 458" d="M595.137,500.481a2.5,2.5,0,0,1-2.481-2.426c-.221-6.782-.607-30.162,3.75-47.365a22.795,22.795,0,0,1,43.23-2.647c7.334,18.582,14.226,41.465,5.624,45.1-11.3,4.687-41.079,6.782-49.957,7.334Z" transform="translate(-265.811 -194.544)" fill="#3f3d56"/>
        <path id="패스_459" data-name="패스 459" d="M685.625,367.352a6.6,6.6,0,0,0,.662.607l-1.434,27.294-5.9,3.033,3.419,9.539,10.973-4.356a4.342,4.342,0,0,0,2.757-4.521l-2.867-30.989a5.79,5.79,0,1,0-8.106-1.158,4.5,4.5,0,0,1,.5.551" transform="translate(-304.577 -160.391)" fill="#ffb8b8"/>
        <path id="패스_460" data-name="패스 460" d="M674.4,426.375l4.135,11.8a2.463,2.463,0,0,1-1.544,3.143c-.11.055-.22.055-.331.11L664.42,443.8a6.888,6.888,0,1,1-4.521-13.013L670.927,425a2.484,2.484,0,0,1,3.364,1.048c.055.11.055.221.11.331" transform="translate(-293.96 -190.52)" fill="#3f3d56"/>
        <path id="패스_461" data-name="패스 461" d="M576.208,367.352a6.609,6.609,0,0,1-.662.607l1.434,27.294,5.9,3.033-3.419,9.539-10.973-4.356a4.342,4.342,0,0,1-2.757-4.521l2.867-30.989A5.79,5.79,0,1,1,576.7,366.8a4.481,4.481,0,0,0-.5.551" transform="translate(-253.774 -160.391)" fill="#ffb8b8"/>
        <path id="패스_462" data-name="패스 462" d="M583.76,424.892a2.4,2.4,0,0,1,2.04.11l11.028,5.79a6.862,6.862,0,0,1,4.191,8.767,6.937,6.937,0,0,1-8.767,4.246l-12.241-2.371a2.549,2.549,0,0,1-1.985-2.922.783.783,0,0,1,.11-.331l4.135-11.8a2.81,2.81,0,0,1,1.489-1.489" transform="translate(-259.286 -190.527)" fill="#3f3d56"/>
        <path id="패스_463" data-name="패스 463" d="M629.219,385.279a8.92,8.92,0,0,1,4.963-8.381c4.135-2.15,5.128-5.255,3.97-9.391-.761-2.811-7.264-5.3-12.681-5.621a20.087,20.087,0,0,0-8.6,1.447,43.569,43.569,0,0,0-4.687,2.757A15.693,15.693,0,0,0,605.95,380.7c.772,5.4,4.3,10.311,9.1,13.73a15.135,15.135,0,0,0,6.231,2.757,8.211,8.211,0,0,0,6.562-1.489c2.647-2.261,2.371-6.01,1.489-9.153a10.773,10.773,0,0,0-.11-1.268" transform="translate(-271.772 -162.327)" fill="#2f2e41"/>
        <path id="패스_464" data-name="패스 464" d="M323.093,520.99l-86.46,35.455a6.048,6.048,0,0,1-7.885-3.308l-26.467-64.514a4.444,4.444,0,0,1,2.426-5.79l89.382-36.668a4.527,4.527,0,0,1,5.9,2.481L326.4,513.1a6.087,6.087,0,0,1-3.308,7.885" transform="translate(-90.593 -199.999)" fill="#e6e6e6"/>
        <path id="패스_465" data-name="패스 465" d="M246.606,555.444l75.6-30.989a5.889,5.889,0,0,0,3.2-7.664l-21.339-52.107a5.889,5.889,0,0,0-7.664-3.2l-75.6,30.989a5.889,5.889,0,0,0-3.2,7.665L239,552.246a5.847,5.847,0,0,0,7.609,3.2" transform="translate(-97.423 -206.828)" fill="#fff"/>
        <rect id="사각형_115" data-name="사각형 115" width="1.213" height="0.221" transform="translate(205.102 272.542) rotate(-22.309)" fill="#e6e6e6"/>
        <path id="패스_466" data-name="패스 466" d="M311.295,496.1l-2.261.937-.055-.165,2.261-.937Zm-4.466,1.82-2.261.937-.055-.165,2.261-.937Zm-4.466,1.875-2.261.937-.055-.165,2.261-.937Zm-4.521,1.82-2.261.937-.055-.165,2.261-.937Zm-4.466,1.875-2.261.937-.055-.165,2.261-.937Zm-4.521,1.82-2.261.937-.055-.165,2.261-.937Zm-4.466,1.82-2.261.937-.055-.165,2.261-.937ZM279.865,509l-2.261.937-.055-.165,2.261-.937Zm-4.466,1.82-2.261.937-.055-.165,2.261-.937Zm-4.466,1.875-2.261.938-.055-.165,2.261-.937Zm-4.521,1.82-2.261.937-.055-.165,2.261-.937Zm-4.466,1.82-2.261.937-.055-.165,2.261-.937Zm-4.522,1.875-2.261.937-.055-.165,2.261-.937Zm-4.466,1.82-2.261.937-.055-.165,2.261-.937Zm-4.521,1.875-2.261.937-.055-.165,2.261-.937Zm-4.466,1.82-2.261.937-.055-.165,2.261-.937Z" transform="translate(-108.405 -222.476)" fill="#e6e6e6"/>
        <rect id="사각형_116" data-name="사각형 116" width="1.213" height="0.221" transform="translate(129.877 303.368) rotate(-22.309)" fill="#e6e6e6"/>
        <rect id="사각형_117" data-name="사각형 117" width="1.213" height="0.221" transform="translate(175.637 304.7) rotate(-22.309)" fill="#e6e6e6"/>
        <path id="패스_467" data-name="패스 467" d="M287.647,554.5l-2.206.882-.055-.165,2.206-.882Zm-4.411,1.765-2.206.882-.055-.166,2.206-.882Zm-4.411,1.82-2.206.882-.055-.165,2.206-.882Zm-4.411,1.82-2.206.882-.055-.165,2.206-.882ZM270,561.725l-2.206.882-.055-.165,2.206-.882Zm-4.466,1.82-2.206.882-.055-.165,2.206-.882Zm-4.411,1.82-2.206.882-.055-.165,2.206-.882Zm-4.411,1.82-2.206.882-.055-.165,2.206-.882Z" transform="translate(-114.147 -248.674)" fill="#e6e6e6"/>
        <rect id="사각형_118" data-name="사각형 118" width="1.213" height="0.221" transform="translate(136.926 320.578) rotate(-22.309)" fill="#e6e6e6"/>
        <rect id="사각형_119" data-name="사각형 119" width="1.213" height="0.221" transform="translate(157.348 321.781) rotate(-22.309)" fill="#e6e6e6"/>
        <path id="패스_468" data-name="패스 468" d="M272.067,585.4l-2.261.938-.055-.165,2.261-.937Zm-4.577,1.875-2.261.937-.055-.165,2.261-.937Zm-4.521,1.875-2.261.937-.055-.165,2.261-.938Z" transform="translate(-116.929 -262.536)" fill="#e6e6e6"/>
        <rect id="사각형_120" data-name="사각형 120" width="1.213" height="0.221" transform="translate(140.292 328.73) rotate(-22.309)" fill="#e6e6e6"/>
        <rect id="사각형_121" data-name="사각형 121" width="1.213" height="0.221" transform="translate(163.024 335.688) rotate(-22.309)" fill="#e6e6e6"/>
        <path id="패스_469" data-name="패스 469" d="M282.367,610.6l-2.261.937-.055-.165,2.261-.937Zm-4.521,1.875-2.261.937-.055-.165,2.261-.937Zm-4.577,1.875-2.261.937-.055-.165,2.261-.937Z" transform="translate(-121.549 -273.841)" fill="#e6e6e6"/>
        <rect id="사각형_122" data-name="사각형 122" width="1.213" height="0.221" transform="translate(145.989 342.688) rotate(-22.309)" fill="#e6e6e6"/>
        <path id="패스_470" data-name="패스 470" d="M276.353,563.549l64.073-26.3a6.332,6.332,0,0,0,3.474-8.271l-12.958-31.54-.11.055L315.117,535.1l-11.635-4.852a1.406,1.406,0,0,0-1.323.11,1.3,1.3,0,0,0-.662.772l-8.216,19.685-8.547-3.584a1.521,1.521,0,0,0-1.985.827c-.11.165-5.4,13.068-6.4,15.494" transform="translate(-123.972 -223.149)" fill="#6c63ff"/>
        <path id="패스_471" data-name="패스 471" d="M275.918,563.611l-.165-.055,6.617-15.77a1.726,1.726,0,0,1,2.206-.937l8.381,3.474,8.216-19.575a1.727,1.727,0,0,1,2.206-.937l11.469,4.8,15.825-37.771.165.055L314.9,534.883l-11.69-4.907a1.521,1.521,0,0,0-1.985.827l-8.271,19.8-8.547-3.584a1.521,1.521,0,0,0-1.985.827Z" transform="translate(-123.702 -222.88)" fill="#3f3d56"/>
        <path id="패스_472" data-name="패스 472" d="M286.331,580.336a1.379,1.379,0,1,1-1.378,1.378,1.378,1.378,0,0,1,1.378-1.378" transform="translate(-127.83 -260.338)" fill="#3f3d56"/>
        <path id="패스_473" data-name="패스 473" d="M319.531,549.436a1.378,1.378,0,1,1-1.378,1.378,1.378,1.378,0,0,1,1.378-1.378" transform="translate(-142.723 -246.476)" fill="#3f3d56"/>
        <path id="패스_474" data-name="패스 474" d="M371.331,490.936a1.379,1.379,0,1,1-1.378,1.379,1.378,1.378,0,0,1,1.378-1.379" transform="translate(-165.96 -220.233)" fill="#3f3d56"/>
        <path id="패스_475" data-name="패스 475" d="M223.515,540.1A5.525,5.525,0,0,0,226,532.656l-.5-.827,4.136-40.693h-8.988l-3.308,39.756a5.592,5.592,0,0,0-.662,7.885,5.651,5.651,0,0,0,6.837,1.323" transform="translate(-96.609 -220.323)" fill="#ffb8b8"/>
        <path id="패스_476" data-name="패스 476" d="M234.79,404.236a12.737,12.737,0,1,1-12.737,12.737,12.737,12.737,0,0,1,12.737-12.737" transform="translate(-99.613 -181.34)" fill="#ffb8b8"/>
        <path id="패스_477" data-name="패스 477" d="M239.921,499.555a2.365,2.365,0,0,1-2.261-1.709c-.993-3.694-3.694-9.98-7.885-18.637a15.408,15.408,0,0,1,7.113-20.622,8.638,8.638,0,0,1,1.654-.662,15.451,15.451,0,0,1,19.685,9.429c.055.165.11.276.165.441,3.253,10.256,3.088,21.174,2.867,25.42a2.351,2.351,0,0,1-1.82,2.15L240.473,499.5c-.221,0-.386.055-.551.055" transform="translate(-102.372 -205.032)" fill="#ffdb28"/>
        <path id="패스_478" data-name="패스 478" d="M282.853,733.318h6.341l3.033-24.482h-9.374Z" transform="translate(-126.887 -317.983)" fill="#ffb8b8"/>
        <path id="패스_479" data-name="패스 479" d="M300.314,757.656H280.353v-7.72h12.241a7.707,7.707,0,0,1,7.72,7.72" transform="translate(-125.766 -336.42)" fill="#2f2e41"/>
        <path id="패스_480" data-name="패스 480" d="M167.653,720.886l5.569,3.033L187.669,703.9l-8.216-4.466Z" transform="translate(-75.209 -313.766)" fill="#ffb8b8"/>
        <path id="패스_481" data-name="패스 481" d="M177.832,750.613l-17.479-9.594,3.694-6.782,10.752,5.9a7.763,7.763,0,0,1,3.033,10.477" transform="translate(-71.934 -329.377)" fill="#2f2e41"/>
        <path id="패스_482" data-name="패스 482" d="M235.592,634.827c-.607,0-1.158-.055-1.764-.055l-4.135-.165c-1.93-.11-3.915-.165-5.845-.276L216.9,634c-2.481-.11-4.963-.221-7.444-.386-2.426-.11-4.852-.221-7.278-.386-2.15-.11-4.356-.221-6.507-.331-1.6-.11-3.143-.165-4.742-.276a24.141,24.141,0,0,1-4.466-.551,19.653,19.653,0,0,1-3.419-1.268c-1.1-.441-2.206-.882-3.308-1.268a2.3,2.3,0,0,1-1.323-3.033v-.055l22.938-56.353a1.3,1.3,0,0,0,.11-.441c3.088-24.041,11.028-36.282,13.344-39.425a1.973,1.973,0,0,0,.276-1.654l-.331-.993a2.255,2.255,0,0,1,.441-2.261c8.436-9.65,23.214-4.356,23.379-4.3h.055l.055.055c16.542,22.663,10.421,96.33,9.043,110.887a2.306,2.306,0,0,1-2.15,2.1l-9.76.772h-.221" transform="translate(-79.957 -233.056)" fill="#2f2e41"/>
        <path id="패스_483" data-name="패스 483" d="M307.533,450.762a4.252,4.252,0,0,0-.11.827l-22.277,12.848-5.4-3.088-5.79,7.554L283,475.354a4.222,4.222,0,0,0,4.963-.11L310.9,457.158a5.444,5.444,0,1,0-3.2-7c-.055.165-.11.386-.165.607" transform="translate(-122.895 -200.35)" fill="#ffb8b8"/>
        <path id="패스_484" data-name="패스 484" d="M275.593,471.46l-7.168,9.319a2.354,2.354,0,0,1-3.253.441c-.11-.055-.165-.165-.276-.221l-8.161-8.492a6.485,6.485,0,0,1,7.94-10.256l10.2,5.735a2.332,2.332,0,0,1,.882,3.2c-.055.11-.11.165-.165.276" transform="translate(-114.058 -206.767)" fill="#ffdb28"/>
        <path id="패스_485" data-name="패스 485" d="M231.378,491.894,219.8,489.8a2.322,2.322,0,0,1-1.875-2.7.784.784,0,0,1,.11-.331l3.749-11.138a6.473,6.473,0,0,1,12.737,2.316l-.386,11.69a2.344,2.344,0,0,1-2.426,2.261h-.331" transform="translate(-97.744 -210.99)" fill="#ffdb28"/>
        <path id="패스_486" data-name="패스 486" d="M232.916,409.347c3.253,2.261,7.554,4.521,10.918,2.15,3.247-2.289,2.536-6.388,1.033-9.5-4.819-9.989-21.138-10.791-28.287-3-3.687,4.019-4.486,10.9-.388,14.929,1.711,1.683,3.529,2.377,3.167,5.174-.607,4.687-3.8,21.735-1.644,28.355,1.616,5.07,16.508,2.107,18.545-1.548,2.219-3.984.278-8.586-1.82-12.168a68.458,68.458,0,0,0-6.4-8.813c-.855-1.042-4.712-4.934-1.208-5.526.463-.078,2.492-1.366,4.422-4.034,1.677-2.319,1.963-5.526,1.658-6.015" transform="translate(-95.753 -176.635)" fill="#2f2e41"/>
        <path id="패스_487" data-name="패스 487" d="M220.5,442.033l3.677-3.3a.854.854,0,0,1,1.14,1.271l-3.677,3.3a.854.854,0,0,1-1.14-1.272" transform="translate(-98.79 -196.719)" fill="#ffdb28"/>
        <path id="패스_488" data-name="패스 488" d="M234.03,442.033l-3.677-3.3a.854.854,0,1,0-1.14,1.271l3.677,3.3a.854.854,0,0,0,1.14-1.272" transform="translate(-102.697 -196.719)" fill="#ffdb28"/>
        <path id="패스_489" data-name="패스 489" d="M222.613,436.136c.865,0,3.655,1.567,3.655,1.567s-2.79,1.566-3.655,1.566a1.566,1.566,0,1,1,0-3.133" transform="translate(-99.161 -195.65)" fill="#ffdb28"/>
        <path id="패스_490" data-name="패스 490" d="M232.232,439.269c-.865,0-3.655-1.566-3.655-1.566s2.79-1.566,3.655-1.566a1.566,1.566,0,0,1,0,3.133" transform="translate(-102.539 -195.65)" fill="#ffdb28"/>
      </g>
    </g>
  </g>
</svg>
