<?xml version="1.0" encoding="UTF-8"?><svg id="Layer_2" xmlns="http://www.w3.org/2000/svg" viewBox="0 0 240.5 142.92"><defs><style>.cls-1{fill:#2a2946;}</style></defs><g id="Layer_1-2"><g><path class="cls-1" d="M43.14,122.35c-1.48-1.17-3.54-1.08-4.13-2.9-.59-1.83-.5-3.79-.41-5.71,.23-5.28,.32-10.57-.1-15.83-.22-2.7-.64-5.56-2.4-7.62-1.76-2.06-4.53-2.92-7.17-3.51-3.59-.8-7.28-1.28-10.95-1.01-6.47,.48-13.27,3.45-14.74,10.39-.21,.99-.29,2.04,.06,2.99,.81,2.22,3.5,3.04,5.85,3.26,2.08,.19,4.45,.04,5.83-1.53,.91-1.03,1.19-2.52,.88-3.86-.31-1.34-1.15-2.51-2.22-3.37-.19-.15-.39-.31-.47-.53-.19-.56,.46-1.02,1.02-1.22,2.99-1.09,6.32-1.2,9.37-.31,.48,.14,.98,.32,1.29,.72,.29,.37,.36,.86,.42,1.32,.31,2.62,.38,5.27,.22,7.92-4.6,.68-9.17,1.69-13.54,3.27-2.7,.97-5.36,2.19-7.56,4.03-2.2,1.85-3.91,4.4-4.29,7.24-.57,4.3,2.11,8.62,5.88,10.76s8.41,2.33,12.64,1.37c3.28-.75,6.65-2.38,8.12-5.41,1.69,2.82,4.77,4.69,8.05,5,4.82,.45,10.95-3.41,8.38-5.45Zm-17.59-4.35s-3.97,5.13-9.58,3.48c-5.61-1.65-4.26-14.12,9.58-14.27v10.79Z"/><path class="cls-1" d="M64.85,90.32c-.17-.89-.34-1.78-.51-2.68-.05-.25-.15-.44-.35-.61-.22-.19-.49-.27-.78-.26-3.67,.15-7.34,.3-11,.45-1.05,.04-3.69,.11-4.3,.87-.74,.9-.67,2.99,.04,3.74,1.06,1.14,2.87,1,4.41,.78,.03,9.56,.07,19.12,.1,28.68-1.55,.3-3.14,.74-4.35,1.76s-1.96,2.73-1.43,4.22c7.62,.14,15.24,.27,22.85,.41,.52-1.31-.09-2.86-1.11-3.83s-2.37-1.51-3.69-2.03c-.09-7.61-.18-15.22-.27-22.84,0-.61-.01-1.25,.23-1.81,.2-.47,.56-.85,.94-1.19,2.66-2.39,6.7-3.14,10.04-1.85,1.01,.39,2.02,1.02,2.45,2.01,.28,.63,.29,1.34,.31,2.03,.14,7.74,.29,15.48,.43,23.22-1.46,.15-2.86,.91-3.72,2.09s-1.16,2.78-.7,4.17c7.29,0,14.57,0,21.86,0,.22-2.72-1.91-5.43-4.61-5.86,0-7.18-.02-14.35-.03-21.53,0-3.41-.08-7.06-2-9.87-2.37-3.46-6.91-4.71-11.1-4.83-4.99-.15-10.3,1.13-13.72,4.74Z"/><path class="cls-1" d="M165.77,87.68c-.27-.21-.65-.22-.99-.22-4.31-.04-8.62-.08-12.93-.12-1.07,0-2.43,.01-2.94,1.12s.12,2.46,.94,3.18c.99,.86,2.35,1.17,3.66,1.31,.05,7.32,.1,14.64,.15,21.96,.02,3.04,.09,6.26,1.74,8.81,1.25,1.94,3.31,3.27,5.5,4s4.53,.92,6.84,.97c3.09,.07,6.25-.11,9.13-1.25,1.79-.7,3.94-3.85,3.94-3.85,0,0,1.9,3.39,2.89,3.69,1.11,.34,8.94,.09,12.77,.15,.49,0,1.59-.17,1.6-1.28,0-1.19-4.73-4.01-4.74-4.48-.22-10.47-.47-22.41-.68-32.88,0-.42-.05-.9-.38-1.15-.24-.18-.56-.18-.85-.18-5.24,.01-10.48,.03-15.72,.04-.4,1.39-.04,2.97,.93,4.05s2.5,1.61,3.92,1.37c.03,6.36,.06,12.73,.09,19.09,.01,2.14-.02,4.42-1.19,6.21-1.68,2.55-5.31,3.25-8.21,2.3-1.86-.61-3.59-1.86-4.37-3.65-.58-1.33-.59-2.83-.6-4.28-.02-7.86-.05-15.72-.07-23.58,0-.48-.03-1.02-.43-1.34Z"/><path class="cls-1" d="M238.11,96.27c.17,.58,.53,1.88-.04,2.24-.97,.61-2.41-1.1-2.97-1.69-2.11-2.23-3.91-3.83-6.87-4.79-2.99-.97-6.1-1.63-9.26-1.24-2.39,.3-5.41,1.22-5.61,4.06-.01,.16-.01,.33,0,.49,.09,2.39,2.46,3.94,4.37,4.91,2.59,1.31,5.44,2.1,8.26,2.72,3.51,.78,6.08,1.49,9.64,3.46,4.25,2.35,6.18,7.69,3.93,12.39-5.12,10.68-18.94,10.87-28.35,6.28-.12-.06-1.63-.49-1.92-.44-.87,.15-1.45,2.27-2.53,1.03-.96-1.1-3.42-11.84-2.94-12.65,.42-.69,1.49-.79,2.1-.29,.65,.52,4.7,4.4,5.83,5.52,1.64,1.63,3.47,3.13,5.59,4.08,3.02,1.35,7.37,2.1,10.44,.55,4.06-2.05,3.1-7.84-.94-9.31-2.61-.95-5.51-.85-8.24-1.4-2.8-.57-5.32-2.02-7.65-3.63-2.43-1.68-5.47-4.04-5.97-7.16-.97-6,.45-10.71,8-13.94,7.55-3.23,14.1-1.27,16,0s3.44,.81,4.02-.55c.24-.57,.57-.68,1.11-.79,.15-.03,.62-.02,.71,.02,.14,.07,.3,.17,.37,.31,.09,.18,.16,.38,.24,.56,.23,.52,1.88,6.49,2.7,9.24Z"/><path class="cls-1" d="M150.2,135.03c-8.64-3.22-14.34-12.23-18.37-20.04-.99-1.93-1.8-3.94-2.78-5.87-.72-1.41-2.26-3.16-1.79-4.85,.12-.45,.76-.95,1.07-1.29,1.22-1.35,2.43-2.7,3.65-4.05,1.3-1.44,2.59-2.88,3.89-4.32,.25-.28,1.44-1.67,1.83-1.69,0,0,4.69-.27,6.31-.85,1.06-.38,3.23-4.19,.77-4.26-4.75-.12-17.9-.05-20.35,.13-1.56,.11-1.72,3.48,.03,4.13,2.75,1.02,4.13,.84,4.13,.84l-9.81,8.77-.13-19.33c1.54-.45,2.53-.82,2.71-3.96,.19-3.3-3.01-3.99-3.01-3.99,.13-2.77,.4-4.51,.4-4.51l10.14-5.33C129.65,25.94,112.67,1.41,111.67,0c-1,1.41-17.98,25.94-17.22,64.55l10.14,5.33s.27,1.73,.4,4.51c0,0-3.21,.69-3.01,3.99,.19,3.15,1.18,3.52,2.73,3.97l-.19,53.46s-5.81,2.13-4.45,5.42h22.84s.77-3.48-4.65-5.42l.19-19.35s13.74,20.13,26.52,24.77c12.77,4.65,25.16-1.16,25.55-6.58,0,0-5.81,5.81-20.32,.39Zm-39.08-66.58l-13.16-5.94s1.81-37.84,13.16-56.67v62.61Z"/></g></g></svg>