<?xml version="1.0" encoding="UTF-8"?><svg id="Layer_2" xmlns="http://www.w3.org/2000/svg" viewBox="0 0 34.65 38.18"><defs><style>.cls-1{fill:#aaa;}</style></defs><g id="svg2"><g id="user"><path id="_패스_1" class="cls-1" d="M16.26,.04C11.51,.46,7.43,3.58,5.77,8.05c-.28,.8-.49,1.63-.62,2.48-.09,.59-.12,1.19-.09,1.79-.02,.57,0,1.15,.09,1.72,.32,2.18,1.21,4.24,2.6,5.96,.8,.98,1.75,1.84,2.8,2.55,.25,.16,.5,.32,.57,.36,.05,.02,.1,.06,.14,.1-.17,.11-.35,.19-.53,.25-3.63,1.49-6.66,4.15-8.61,7.55-.96,1.68-1.64,3.51-2,5.41-.09,.28-.12,.57-.1,.87,.05,.29,.19,.56,.41,.77,.23,.24,.56,.36,.9,.33,.2,.02,.4-.02,.58-.12,.15-.08,.28-.18,.4-.3,.18-.2,.29-.45,.33-.71,.08-.49,.18-.98,.31-1.46,.68-2.51,2.01-4.79,3.86-6.63,2.49-2.52,5.81-4.06,9.35-4.33,1.04-.06,2.08-.03,3.11,.08,2.76,.36,5.36,1.49,7.51,3.25,.74,.64,1.43,1.33,2.07,2.07,1.61,1.96,2.69,4.3,3.15,6.8,.02,.39,.19,.75,.47,1.01,.23,.24,.55,.36,.88,.33,.34,.02,.67-.11,.9-.35,.38-.34,.52-.88,.35-1.36-.04-.19-.13-.56-.18-.81-.61-2.73-1.87-5.28-3.67-7.43-.65-.74-1.35-1.45-2.09-2.11-1.41-1.19-3-2.15-4.7-2.86-.19-.06-.38-.15-.56-.25,0,0,.17-.12,.36-.23,2.84-1.75,4.85-4.57,5.58-7.82,.21-.87,.29-1.77,.25-2.66,.04-.94-.06-1.89-.3-2.81-.79-3.35-2.94-6.21-5.94-7.89C21.17,.38,18.71-.16,16.26,.04Zm2.62,2.72c.92,.15,1.82,.44,2.66,.86,1.68,.81,3.08,2.1,4.04,3.7,1.92,3.2,1.83,7.22-.25,10.33-1.53,2.28-3.95,3.81-6.67,4.21-.9,.1-1.82,.1-2.72,0-2.12-.31-4.08-1.31-5.57-2.86-1.41-1.45-2.32-3.3-2.62-5.3-.12-.93-.12-1.87,0-2.81,.32-2.18,1.37-4.18,2.99-5.67,1.45-1.34,3.27-2.21,5.22-2.49l.43-.06h1.07c.47-.01,.95,.02,1.42,.09h0Z"/></g></g></svg>