<?xml version="1.0" encoding="UTF-8"?><svg id="Layer_2" xmlns="http://www.w3.org/2000/svg" viewBox="0 0 32.16 39.59"><defs><style>.cls-1{fill:#aaa;}</style></defs><g id="svg2"><path class="cls-1" d="M13.14,32.09l-4.11-4.11c-.49-.49-.49-1.28,0-1.77h0c.49-.49,1.28-.49,1.77,0l3.23,3.23,7.41-7.41c.49-.49,1.28-.49,1.77,0h0c.49,.49,.49,1.28,0,1.77l-8.3,8.3c-.49,.49-1.28,.49-1.77,0Z"/><path id="_패스_2" class="cls-1" d="M15.01,.02C10.84,.39,7.38,3.43,6.48,7.52c-.31,1.55-.42,3.14-.3,4.72v2.61l-1.04,.02c-.64-.05-1.28,.04-1.88,.27-1.4,.52-2.5,1.64-3,3.05C0,18.96,0,18.25,0,27.03c-.02,8.72-.02,8.35,.22,9.1,.48,1.51,1.65,2.7,3.15,3.22,.78,.25-.33,.25,12.46,.25,7.79,0,11.72,0,11.97-.03,1.51-.18,2.85-1.03,3.65-2.32,.27-.45,.48-.93,.61-1.44l.11-.39v-8c0-8.82,.02-8.4-.25-9.16-.57-1.73-2.04-3-3.83-3.32-.4-.05-.81-.07-1.22-.06h-.89v-2.6c.12-1.59,.01-3.19-.31-4.76-.42-1.8-1.34-3.45-2.66-4.75-1.46-1.44-3.33-2.37-5.36-2.66C16.77,0,15.89-.02,15.01,.02Zm2.25,2.53c1.15,.17,2.24,.6,3.19,1.26,.61,.46,1.15,1.01,1.62,1.62,.83,1.18,1.32,2.57,1.42,4.01,.03,.34,.04,1.48,.03,2.97v2.43H8.67v-2.72c-.05-1.07-.02-2.15,.07-3.22,.35-3.42,3.09-6.12,6.52-6.42,.67-.04,1.34-.02,2,.07h0Zm10.79,14.9c.79,.28,1.38,.94,1.58,1.75,.17,2.66,.2,5.33,.08,8,0,8.51,.02,7.97-.27,8.56-.25,.47-.64,.86-1.12,1.11-.6,.29,.36,.27-12.38,.25-9.51,0-11.52-.02-11.66-.07-.88-.27-1.56-.99-1.78-1.89-.09-.42-.09-15.46,0-15.88,.12-.54,.41-1.03,.84-1.39,.3-.24,.64-.41,1.01-.52,.17-.04,2.49-.05,11.8-.04h11.58l.31,.13Z"/></g></svg>