<?xml version="1.0" encoding="UTF-8"?><svg id="Layer_2" xmlns="http://www.w3.org/2000/svg" viewBox="0 0 32.16 39.59"><defs><style>.cls-1{fill:#00c850;}</style></defs><g id="svg2"><path class="cls-1" d="M31.91,18.26c-.28-.83-.76-1.55-1.39-2.12-.68-.61-1.51-1.04-2.44-1.2-.4-.05-.81-.07-1.22-.06h-.89v-2.6c.12-1.59,.01-3.19-.31-4.76-.42-1.8-1.34-3.45-2.66-4.75-.72-.71-1.54-1.3-2.43-1.74-.92-.46-1.9-.77-2.93-.92C16.77,0,15.89-.02,15.01,.02c-1.24,.11-2.42,.46-3.48,1-2.52,1.27-4.42,3.62-5.05,6.5-.31,1.55-.42,3.14-.3,4.72v2.61l-1.04,.02c-.64-.05-1.28,.04-1.88,.27-.85,.32-1.57,.87-2.13,1.56-.36,.44-.67,.93-.87,1.49C0,18.96,0,18.25,0,27.03c-.02,8.72-.02,8.35,.22,9.1,.48,1.51,1.65,2.7,3.15,3.22,.78,.25-.33,.25,12.46,.25,7.79,0,11.72,0,11.97-.03,1.51-.18,2.85-1.03,3.65-2.32,.27-.45,.48-.93,.61-1.44l.11-.39v-8c0-8.82,.02-8.4-.25-9.16ZM8.74,8.9c.35-3.42,3.09-6.12,6.52-6.42,.67-.04,1.34-.02,2,.07h.01c1.15,.16,2.24,.6,3.19,1.26,.61,.46,1.15,1.01,1.62,1.62,.83,1.18,1.32,2.57,1.42,4.01,.03,.34,.04,1.48,.03,2.97v2.43H8.67v-2.72c-.05-1.07-.02-2.15,.07-3.22Zm14.46,14.9l-8.3,8.3c-.49,.49-1.28,.49-1.77,0l-4.11-4.11c-.49-.49-.49-1.28,0-1.77,.49-.49,1.28-.49,1.77,0l3.23,3.23,7.41-7.41c.49-.49,1.28-.49,1.77,0,.49,.49,.49,1.28,0,1.77Z"/></g></svg>