<?xml version="1.0" encoding="UTF-8"?><svg id="Layer_2" xmlns="http://www.w3.org/2000/svg" viewBox="0 0 32.16 39.59"><defs><style>.cls-1{fill:#00c850;}</style></defs><g id="svg2"><path class="cls-1" d="M31.91,18.26c-.38-1.13-1.15-2.06-2.13-2.67-.52-.32-1.09-.55-1.7-.66-.4-.05-.81-.07-1.22-.06h-.89v-2.6c.12-1.59,.01-3.19-.31-4.76-.42-1.8-1.34-3.45-2.66-4.75-1.21-1.2-2.72-2.04-4.35-2.45-.33-.08-.67-.16-1.01-.21C16.77,0,15.89-.02,15.01,.02c-.56,.05-1.1,.15-1.62,.29-3.43,.91-6.13,3.66-6.91,7.21-.31,1.55-.42,3.14-.3,4.72v2.61l-1.04,.02c-.64-.05-1.28,.04-1.88,.27-.29,.11-.55,.25-.81,.41-1.01,.6-1.79,1.52-2.19,2.64C0,18.96,0,18.25,0,27.03c-.02,8.72-.02,8.35,.22,9.1,.48,1.51,1.65,2.7,3.15,3.22,.78,.25-.33,.25,12.46,.25,7.79,0,11.72,0,11.97-.03,1.51-.18,2.85-1.03,3.65-2.32,.27-.45,.48-.93,.61-1.44l.11-.39v-8c0-8.82,.02-8.4-.25-9.16Zm-13.98,8.08c-.12,.15-.26,.28-.42,.4l-.2,.14-.02,2.17v2.17l-.11,.23c-.12,.27-.34,.49-.61,.61-.62,.28-1.36,.01-1.64-.61l-.11-.23v-4.37l-.12-.06c-.3-.21-.55-.47-.74-.77-.22-.35-.34-.76-.34-1.17-.03-.42,.05-.84,.25-1.21,.36-.73,1.05-1.24,1.86-1.37,.31-.03,.62-.02,.93,.04,.35,.1,.67,.26,.96,.48,.02,.02,.04,.04,.07,.05,1.04,.89,1.16,2.45,.27,3.49Zm5.58-13.93v2.43H8.67v-2.72c-.05-1.07-.02-2.15,.07-3.22,.35-3.42,3.09-6.12,6.52-6.42,.67-.04,1.34-.02,2,.07h.01c1.15,.16,2.24,.6,3.19,1.26,.61,.46,1.15,1.01,1.62,1.62,.83,1.18,1.32,2.57,1.42,4.01,.03,.34,.04,1.48,.03,2.97Z"/></g></svg>