<?xml version="1.0" encoding="UTF-8"?><svg id="Layer_2" xmlns="http://www.w3.org/2000/svg" viewBox="0 0 511.68 464.2"><defs><style>.cls-1{fill:#c4c4c4;}</style></defs><g id="Layer_2-2"><path class="cls-1" d="m9.29,3.2C.99,8.9-2.31,19.4,1.69,28.1c1.2,2.6,39.7,49,94.1,113.2l92.1,108.8v74.2c0,49.2.4,75.5,1.1,78,2.4,8.7,4.6,10.1,58.4,36.9l50,25,6.6-.4c9.7-.5,16.3-5.8,18.9-14.9.6-2.1,1-40.8,1-101.1v-97.7l91.6-108.3c50.4-59.6,92.5-109.6,93.5-111.3,5.8-9.3,1.8-23.5-8.1-28.5-3.9-2-6.3-2-245.3-2H14.09l-4.8,3.2Zm436,39c-.4.6-36.4,43.3-80,94.8-43.6,51.6-80,95.3-81.1,97.1-1.7,3.2-1.8,8-2.1,89.6l-.3,86.3-25.9-13-25.9-13-.3-73.2c-.3-69-.4-73.5-2.1-76.7-1.1-1.8-37.5-45.5-81.1-97-43.6-51.6-79.6-94.3-80-94.9-.5-.9,43.1-1.2,189.4-1.2s189.9.3,189.4,1.2Z"/></g></svg>