<?xml version="1.0" encoding="UTF-8"?><svg id="Layer_2" xmlns="http://www.w3.org/2000/svg" viewBox="0 0 191.2 191.89"><defs><style>.cls-1{fill:#c4c4c4;}</style></defs><g id="svg2"><path class="cls-1" d="M189.73,183.36l-58.07-58.07c11.81-13.31,19.01-30.8,19.01-49.95C150.68,33.8,116.88,0,75.34,0S0,33.8,0,75.34s33.8,75.34,75.34,75.34c18.8,0,36-6.94,49.21-18.36l58.11,58.11c.98,.98,2.26,1.46,3.54,1.46s2.56-.49,3.54-1.46c1.95-1.95,1.95-5.12,0-7.07ZM10,75.34C10,39.31,39.31,10,75.34,10s65.34,29.31,65.34,65.34-29.31,65.34-65.34,65.34S10,111.37,10,75.34Z"/></g></svg>