<?xml version="1.0" encoding="UTF-8"?><svg id="Layer_2" xmlns="http://www.w3.org/2000/svg" viewBox="0 0 383.92 447.27"><defs><style>.cls-1{fill:#fff;}</style></defs><g id="Layer_1-2"><g><path class="cls-1" d="M9.34,1.17C5.24,2.97,1.04,8.07,.34,12.07,.04,13.87-.06,110.27,.04,226.47l.3,211.2,2.1,2.7c1.1,1.5,3.3,3.7,4.8,4.8q2.7,2.1,152.5,2.1h149.8l3.5-2.7c6.8-5.2,6.9-6,6.6-54.3-.3-41.3-.4-43.1-2.4-46.5-3-5.2-8.8-8.2-14.7-7.7-5.4,.5-9.1,2.7-12.4,7.7-2.3,3.3-2.3,3.7-2.3,37.6v34.4H31.84V31.77H287.84v34.6c0,38.7,.1,39.4,6.9,44,7.1,4.8,16.9,2.7,22.5-4.9,2-2.8,2.1-4,2.4-47,.3-49.6,.2-50.3-6.6-55.5l-3.5-2.7L160.94,.07C38.94-.13,11.84,.07,9.34,1.17Z"/><path class="cls-1" d="M297.84,144.87c-8.3,3.3-12.6,14.2-8.6,21.7,.8,1.5,10.1,11.2,20.5,21.7l19.1,19-87.4,.5c-86.8,.5-87.5,.5-90.3,2.6-9.8,7.3-9.8,19.5,0,26.8,2.8,2.1,3.5,2.1,90.3,2.6l87.4,.5-19.1,19c-10.4,10.4-19.7,20.2-20.5,21.7s-1.4,4.7-1.4,7.1c0,11.3,12.6,19,22.6,13.9,2.2-1.2,18.6-16.8,38.1-36.4,29.7-29.8,34.2-34.8,34.8-38,1.7-9.1,2.1-8.5-34.8-45.6-18.8-18.9-35.9-35.2-37.9-36.3-4-2.1-8.8-2.4-12.8-.8Z"/></g></g></svg>